HIERARCHY
ROOT Hips
{
	OFFSET -14.64140 90.27770 -84.91600
	CHANNELS 6 Xposition Yposition Zposition Zrotation Xrotation Yrotation
	JOINT Spine
	{
		OFFSET 0.00000 13.20850 -1.60436
		CHANNELS 3 Zrotation Xrotation Yrotation
		JOINT Spine1
		{
			OFFSET 0.00000 8.61716 0.00000
			CHANNELS 3 Zrotation Xrotation Yrotation
			JOINT Spine2
			{
				OFFSET 0.00000 8.61717 0.00000
				CHANNELS 3 Zrotation Xrotation Yrotation
				JOINT Spine3
				{
					OFFSET 0.00000 8.61717 0.00000
					CHANNELS 3 Zrotation Xrotation Yrotation
					JOINT Neck
					{
						OFFSET 0.00000 11.07920 1.10792
						CHANNELS 3 Zrotation Xrotation Yrotation
						JOINT Neck1
						{
							OFFSET 0.00000 7.08032 0.00000
							CHANNELS 3 Zrotation Xrotation Yrotation
							JOINT Head
							{
								OFFSET 0.00000 7.08031 0.00000
								CHANNELS 3 Zrotation Xrotation Yrotation
								End site
								{
									OFFSET 0.00000 0.00000 0.00000
								}
							}
						}
					}
					JOINT RightShoulder
					{
						OFFSET -0.01000 7.91373 5.19711
						CHANNELS 3 Zrotation Xrotation Yrotation
						JOINT RightArm
						{
							OFFSET -18.41580 0.00000 0.00000
							CHANNELS 3 Zrotation Xrotation Yrotation
							JOINT RightForeArm
							{
								OFFSET -29.11090 0.00000 0.00000
								CHANNELS 3 Zrotation Xrotation Yrotation
								JOINT RightHand
								{
									OFFSET -24.65040 0.00000 0.00000
									CHANNELS 3 Zrotation Xrotation Yrotation
									JOINT RightHandThumb1
									{
										OFFSET -5.35114 -0.85590 3.97906
										CHANNELS 3 Zrotation Xrotation Yrotation
										JOINT RightHandThumb2
										{
											OFFSET -4.52789 0.00000 0.00000
											CHANNELS 3 Zrotation Xrotation Yrotation
											JOINT RightHandThumb3
											{
												OFFSET -2.46976 0.00000 0.00000
												CHANNELS 3 Zrotation Xrotation Yrotation
												End site
												{
													OFFSET 0.00000 0.00000 0.00000
												}
											}
										}
									}
									JOINT RightHandIndex1
									{
										OFFSET -14.26970 0.00000 2.88139
										CHANNELS 3 Zrotation Xrotation Yrotation
										JOINT RightHandIndex2
										{
											OFFSET -5.48836 0.00000 0.00000
											CHANNELS 3 Zrotation Xrotation Yrotation
											JOINT RightHandIndex3
											{
												OFFSET -3.01859 0.00000 0.00000
												CHANNELS 3 Zrotation Xrotation Yrotation
												End site
												{
													OFFSET 0.00000 0.00000 0.00000
												}
											}
										}
									}
									JOINT RightHandMiddle1
									{
										OFFSET -14.26970 0.00000 -0.09147
										CHANNELS 3 Zrotation Xrotation Yrotation
										JOINT RightHandMiddle2
										{
											OFFSET -6.17441 0.00000 0.00000
											CHANNELS 3 Zrotation Xrotation Yrotation
											JOINT RightHandMiddle3
											{
												OFFSET -3.56743 0.00000 0.00000
												CHANNELS 3 Zrotation Xrotation Yrotation
												End site
												{
													OFFSET 0.00000 0.00000 0.00000
												}
											}
										}
									}
									JOINT RightHandRing1
									{
										OFFSET -12.69180 0.00000 -3.06433
										CHANNELS 3 Zrotation Xrotation Yrotation
										JOINT RightHandRing2
										{
											OFFSET -5.62556 0.00000 0.00000
											CHANNELS 3 Zrotation Xrotation Yrotation
											JOINT RightHandRing3
											{
												OFFSET -3.56744 0.00000 0.00000
												CHANNELS 3 Zrotation Xrotation Yrotation
												End site
												{
													OFFSET 0.00000 0.00000 0.00000
												}
											}
										}
									}
									JOINT RightHandPinky1
									{
										OFFSET -11.11390 0.00000 -6.03719
										CHANNELS 3 Zrotation Xrotation Yrotation
										JOINT RightHandPinky2
										{
											OFFSET -4.52789 0.00000 0.00000
											CHANNELS 3 Zrotation Xrotation Yrotation
											JOINT RightHandPinky3
											{
												OFFSET -2.46976 0.00000 0.00000
												CHANNELS 3 Zrotation Xrotation Yrotation
												End site
												{
													OFFSET 0.00000 0.00000 0.00000
												}
											}
										}
									}
								}
							}
						}
					}
					JOINT LeftShoulder
					{
						OFFSET 0.01000 7.91373 5.19711
						CHANNELS 3 Zrotation Xrotation Yrotation
						JOINT LeftArm
						{
							OFFSET 18.41580 0.00000 0.00000
							CHANNELS 3 Zrotation Xrotation Yrotation
							JOINT LeftForeArm
							{
								OFFSET 29.11090 0.00000 0.00000
								CHANNELS 3 Zrotation Xrotation Yrotation
								JOINT LeftHand
								{
									OFFSET 24.65040 0.00000 0.00000
									CHANNELS 3 Zrotation Xrotation Yrotation
									JOINT LeftHandThumb1
									{
										OFFSET 5.35114 -0.85590 3.97906
										CHANNELS 3 Zrotation Xrotation Yrotation
										JOINT LeftHandThumb2
										{
											OFFSET 4.52789 0.00000 0.00000
											CHANNELS 3 Zrotation Xrotation Yrotation
											JOINT LeftHandThumb3
											{
												OFFSET 2.46977 0.00000 0.00000
												CHANNELS 3 Zrotation Xrotation Yrotation
												End site
												{
													OFFSET 0.00000 0.00000 0.00000
												}
											}
										}
									}
									JOINT LeftHandIndex1
									{
										OFFSET 14.26970 0.00000 2.88139
										CHANNELS 3 Zrotation Xrotation Yrotation
										JOINT LeftHandIndex2
										{
											OFFSET 5.48836 0.00000 0.00000
											CHANNELS 3 Zrotation Xrotation Yrotation
											JOINT LeftHandIndex3
											{
												OFFSET 3.01859 0.00000 0.00000
												CHANNELS 3 Zrotation Xrotation Yrotation
												End site
												{
													OFFSET 0.00000 0.00000 0.00000
												}
											}
										}
									}
									JOINT LeftHandMiddle1
									{
										OFFSET 14.26970 0.00000 -0.09147
										CHANNELS 3 Zrotation Xrotation Yrotation
										JOINT LeftHandMiddle2
										{
											OFFSET 6.17440 0.00000 0.00000
											CHANNELS 3 Zrotation Xrotation Yrotation
											JOINT LeftHandMiddle3
											{
												OFFSET 3.56744 0.00000 0.00000
												CHANNELS 3 Zrotation Xrotation Yrotation
												End site
												{
													OFFSET 0.00000 0.00000 0.00000
												}
											}
										}
									}
									JOINT LeftHandRing1
									{
										OFFSET 12.69180 0.00000 -3.06433
										CHANNELS 3 Zrotation Xrotation Yrotation
										JOINT LeftHandRing2
										{
											OFFSET 5.62556 0.00000 0.00000
											CHANNELS 3 Zrotation Xrotation Yrotation
											JOINT LeftHandRing3
											{
												OFFSET 3.56744 0.00000 0.00000
												CHANNELS 3 Zrotation Xrotation Yrotation
												End site
												{
													OFFSET 0.00000 0.00000 0.00000
												}
											}
										}
									}
									JOINT LeftHandPinky1
									{
										OFFSET 11.11390 0.00000 -6.03719
										CHANNELS 3 Zrotation Xrotation Yrotation
										JOINT LeftHandPinky2
										{
											OFFSET 4.52789 0.00000 0.00000
											CHANNELS 3 Zrotation Xrotation Yrotation
											JOINT LeftHandPinky3
											{
												OFFSET 2.46976 0.00000 0.00000
												CHANNELS 3 Zrotation Xrotation Yrotation
												End site
												{
													OFFSET 0.00000 0.00000 0.00000
												}
											}
										}
									}
								}
							}
						}
					}
					JOINT pCube4
					{
						OFFSET 0.00000 10.91090 1.10792
						CHANNELS 3 Zrotation Xrotation Yrotation
						End site
						{
							OFFSET 0.00000 0.00000 0.00000
						}
					}
				}
			}
		}
	}
	JOINT RightUpLeg
	{
		OFFSET -9.98441 0.00000 0.00000
		CHANNELS 3 Zrotation Xrotation Yrotation
		JOINT RightLeg
		{
			OFFSET 0.00000 -42.11790 0.00000
			CHANNELS 3 Zrotation Xrotation Yrotation
			JOINT RightFoot
			{
				OFFSET 0.00000 -45.00020 -0.00001
				CHANNELS 3 Zrotation Xrotation Yrotation
				JOINT RightForeFoot
				{
					OFFSET 0.00000 -3.74820 0.00000
					CHANNELS 3 Zrotation Xrotation Yrotation
					JOINT RightToeBase
					{
						OFFSET 0.00000 0.06325 14.43120
						CHANNELS 3 Zrotation Xrotation Yrotation
						End site
						{
							OFFSET 0.00000 0.00000 0.00000
						}
					}
				}
			}
		}
	}
	JOINT LeftUpLeg
	{
		OFFSET 9.98441 0.00000 0.00000
		CHANNELS 3 Zrotation Xrotation Yrotation
		JOINT LeftLeg
		{
			OFFSET 0.00000 -42.11800 0.00000
			CHANNELS 3 Zrotation Xrotation Yrotation
			JOINT LeftFoot
			{
				OFFSET 0.00000 -45.00070 0.00000
				CHANNELS 3 Zrotation Xrotation Yrotation
				JOINT LeftForeFoot
				{
					OFFSET 0.00000 -3.74824 0.00000
					CHANNELS 3 Zrotation Xrotation Yrotation
					JOINT LeftToeBase
					{
						OFFSET 0.00000 0.06325 14.43110
						CHANNELS 3 Zrotation Xrotation Yrotation
						End site
						{
							OFFSET 0.00000 0.00000 0.00000
						}
					}
				}
			}
		}
	}
}
MOTION
Frames: 4
Frame Time: 0.050000
0.019998646104704407 0.018404743607403087 0.02608566548746541 0.01926877194419757 0.02816542167117185 0.044030553543891904 -2.817681625290959 -0.11031247573194405 -0.9153783918107237 -0.2281122212819058 3.7655205514861425 0.23663524604290448 -0.7111545944985918 -2.0791714840412294 -0.1162410957549827 -1.0152082981201112 -1.1279947578049418 -0.5707293570738634 -0.2581098411402885 13.04334871155683 -0.17760462517670805 1.0138911249206832 -0.4685962315192245 -0.22565797124569492 1.2410128502914672 -15.253960715405537 -0.07117166803834786 -0.5391533797639738 0.5749382691040319 -13.216811089088567 63.201486069552324 -0.6294414127129394 23.615764963550443 34.08650090538635 7.661172001769993 98.28257100923008 27.55027187676558 -0.04071466372480949 -7.66581852328875 4.545443223585072 -0.1337492562709209 -1.5568835225621356 -0.04420969901682201 0.007157016599149417 -56.248892210522925 -0.01359149442353353 0.027088090877621596 -56.252313184978526 -38.81378183134715 -0.04451768469937081 -0.02807979331979014 -0.001130898819050765 0.02019705071140498 -0.009009804696853215 0.01127798064789666 0.03919944711768124 -0.02417092784849069 -36.67761783759237 -0.02361320575821374 -0.024105234652634124 -0.005563318645453032 0.030680199607740752 0.041234391427247996 0.0064969978425604615 0.0314919317672656 0.003197191003522402 -19.763773612519483 0.01680079237152171 0.038076696441229886 0.03919309546601413 0.0379443579646196 -0.026848900927842662 0.045293602784676104 0.010540945795245548 -0.0483471754246171 24.013203421491365 0.018599400680679425 -0.030476264897626854 28.832853119567787 0.042038965065925867 -0.04202977647435439 28.836973923212767 0.03559481008416266 -0.03081817578554515 4.665778650136904 1.3036143069905877 12.237462013391335 -68.0468967104759 25.162623923360066 -26.960661125461552 -24.549910745554076 3.54250297719354 -97.49375653635362 -28.437669661289014 2.4497018948944382 -2.7615482489819216 -0.48493909013466824 0.07182921933543389 -8.113316643595603 -0.03093211199926651 -0.020925591701966624 44.589540154242464 0.024678753646583257 -0.035819361207769206 44.58096361138914 12.420161457203022 -0.009000407899429609 -0.006142768571058767 0.04680801350535316 -0.019098662780115797 0.030791055174647437 -0.0038802854984452315 -0.010946978042611969 -0.025504711165569745 11.142311026449194 -0.016871591302513197 0.013806053732156669 -0.013723504816497058 -0.0006458463450597043 0.020502790923900418 0.01139702327012005 0.0487557499271929 0.022155845718827935 4.788484272653036 -0.02105664288681716 -0.04971925502251291 -0.037714704837229295 -0.01773637738607056 0.006972684365659482 -0.04979591818503589 0.02229613187349183 0.000729483207135261 -5.560145545204236 -0.015765122163008117 0.02857666089749239 -6.755324341138571 -0.015053542211066062 0.03586629604435156 -6.7399738194926435 -0.028313390748746888 0.03369109686494167 -0.03563637107420047 0.047499310361560895 0.0006008965907628892 8.050823974935465 3.4750788209490526 -19.224330689954215 -0.002766353886204411 10.419340922290019 0.017116377523615674 -5.654548891023611 -15.618127520729958 3.2110810977514705 -0.012896919265904513 -0.04726988763303753 0.036747930563918806 -0.02611556528066144 4.729779277409418 -0.012199687764411488 12.482338443952983 -8.2414713778069 6.893173737174136 -0.035487434010294146 46.38649075321446 -0.02180972591136837 -4.320952374225269 -14.704489780220172 -3.841078325680821 -0.041607260076179396 -0.026436588553829427 -0.04435880728208493 -0.013440527800992417 -10.751101490518614 -0.005134187656878528 
0.0008885560105545295 0.03238000022933267 0.000340161152366984 0.042926700825539565 0.018476387463895676 0.012514681059227385 -2.632055045355192 -0.09693358303492396 -0.9905817275854265 -0.22301186485774568 3.7657729606198487 0.22659773179166384 -0.7495089632543964 -2.0125051447252247 -0.09269676889373826 -1.0374042810497308 -1.166633622109649 -0.5914280958466677 -0.29437623586812045 13.120931317395607 -0.10928370561481955 1.0684321964884511 -0.49147076929124517 -0.062469437354583504 1.2183149764582966 -15.23752256577834 -0.10164522974321194 -0.4773490849260151 0.6291471095052878 -13.350949607217471 64.16462474418961 -0.7910447188525164 22.663969140379482 32.14585633629316 7.788229684858635 98.75241652778492 26.767392736788718 -0.050829850924179645 -7.149002288919587 4.550171917456825 -0.13997628899665449 -1.5827528915350444 0.047449503957611765 0.02712804565201194 -56.25718815956459 0.04364437254086529 -0.01172028636243016 -56.24316457647609 -38.72105184387073 -0.018004744005374274 -0.0034700986392750023 0.04818337194411756 0.006952502814065327 0.047165631922653314 -0.045043481501916276 -0.03477006017308024 0.028703685628350534 -36.65880176009653 -0.006640018313133322 -0.00226421092638845 0.015583846207147874 -0.018773181079089235 0.049336956089156156 0.002602228459009533 0.007425757843568694 0.03210848517593854 -19.768483959098877 0.026854455425751697 -0.0011899889722951753 0.0359188080713325 -0.0013601979170254541 0.0028954060090856707 -0.030864043083415175 0.0013001604663811417 -0.039449967302111574 24.036425114256733 -0.032868275071186094 0.0034418064636795205 28.834728705400778 -0.026434390516947574 -0.032306552589651726 28.863576726615694 0.0466348143394316 0.01863591425974681 4.757947750663316 1.3921196788389019 12.347182727278923 -68.7159712144229 24.112817439384536 -27.050694456444134 -23.107619766867153 3.7911960415410917 -97.1851686891861 -27.69571407152337 3.4313107572525627 -3.4944860660199057 -0.4646903400213309 0.09102513006022758 -8.102302230646101 -0.008542855195906331 -0.03956540082434547 44.566615553505386 0.015158213113649432 0.035605743639680484 44.584680137258694 12.43800430540605 -0.015867546276841157 -0.02019786894356345 -0.04270385545596065 0.04003548389595248 0.0016031662020094509 0.04886342856987276 -0.040913724531319716 -0.01592705081061949 11.099447581732784 -0.002541268368770995 -0.04363961740015937 -0.04748486882880622 -0.039452234502547354 0.033712466849782054 0.017136497873870293 0.005150007821379985 -0.049598483264935836 4.762426926411466 0.01216066221105686 0.03328562643962844 -0.04194176323417281 0.019542167362959953 0.014951465713063083 0.002057717074015303 -0.004534525613487149 0.028523216971319598 -5.641435190955345 -0.027422922513611794 -0.018350027785215755 -6.7437370808711865 0.0011485971004696167 -0.04531389064999336 -6.762418119350742 -0.01893760911441956 0.02310446091586791 0.048953142250930025 -0.008177849046886116 -0.004360716602183793 8.018900547678376 3.5161669644735762 -19.236188233053564 -0.0359088938133804 10.360051866448325 -0.010177284961920201 -5.624778020123531 -15.616909784739422 3.181931539530712 -0.000397366332915146 -0.02294224106618113 0.029626737604285018 -0.01097851648290508 4.745040920539693 -0.001157175098669133 12.444505909814579 -8.201783361171344 6.874352717239519 -0.01108746378557731 46.385100961601076 0.00522289080550503 -4.333819154215466 -14.743535308638723 -3.8198632552702634 0.04009725723803258 0.03038040980999998 0.02608037038570462 -0.015921070765803687 -10.749663743893272 -0.010684783732350007 
-0.010296527221400457 -0.006102389514873633 -0.030668283520064774 -0.005446539297984823 -0.017719495316347245 -0.04136405099624431 -2.2227652131988216 -0.14813628674708207 -1.0818434490314524 -0.20521761355674523 3.8256704289124044 0.2826268699584127 -0.6186359084016833 -2.029619740752847 -0.15148494650277058 -1.0093130926563663 -1.1974597579850481 -0.5654301396358061 -0.327820358234874 13.137475113892986 -0.04604431002701066 1.0768062652062982 -0.38546736010864374 0.26504324887287434 1.1202603295906997 -15.12102773541366 -0.03445725704933489 -0.5873462433431123 0.6627623265174761 -13.506126350946005 65.27492044641816 -0.35179313597951484 21.657377413610526 31.06714857295293 8.045635858893602 99.16804684914787 25.98604848584457 -0.16018304718912244 -6.729006695443302 4.534887701080966 -0.12260142212833784 -1.6088552255221291 0.03996991598759499 -0.009411668740897496 -56.23959108987648 -0.01516527426854342 -0.009601071537025004 -56.26659225140497 -38.769471940373045 -0.005713552328176619 -0.015406870216136563 -0.0007139281768734848 0.024478215067451414 0.02591889156134516 -0.010741154849774772 -0.00958116402334499 0.018591159578439317 -36.74218916107512 -0.011779594552949536 -0.022307250719530526 0.022196501251499415 -0.0073057727812028605 -0.026524538884261976 0.013235100631310896 -0.03507063206526568 -0.007901572840372005 -19.741755399128746 0.02047428777697309 0.015342569166030839 -0.002384483980130419 -0.044244325253609156 -0.013661333816649034 -0.033770648823935885 0.015992622034613886 0.023167495875336373 24.036383021799473 0.02329642911716868 0.001853817145389118 28.881681467087628 0.03680009295698824 0.00575548873377002 28.87503899755723 -0.03200072295549215 -0.030043521160309276 5.144685723304361 1.4354738870147632 12.387422751770854 -69.64393398415952 22.822152632305805 -27.332251188229566 -23.54239242019882 4.514075700721665 -96.79882170028 -26.824370158353098 4.235038952495508 -4.054798581702427 -0.46799569041728145 0.050573973476930545 -8.107707620182182 0.026468012191737618 -0.022941416438662654 44.5390868350758 -0.006185425187262908 -0.010581767648085298 44.54840235935085 12.467794005646262 -0.04836625193094117 0.01955256082381185 -0.009733391066874222 0.03662295885249507 0.008373619344731105 0.04706898798425734 -0.028514897913490024 -0.0029755047317805523 11.136685045031582 0.028349723537541963 -0.003447483247265947 0.03580713582873902 0.02387005325865974 -0.017529128679131558 -0.010246686212548291 0.0009570684047213899 0.043834401055054976 4.784282209446739 0.029170355791862626 0.02603270158980872 0.0023799279598106346 0.01113341517464701 0.03092617014278763 0.0005055118712113892 -0.0468516769009176 0.020554273665633494 -5.636970630362344 -0.00857038673801341 -0.03462343847413748 -6.754964211969214 0.01753536077065551 -0.004412654254649051 -6.688487013171212 -0.04137686645566227 0.018730294522096496 0.017570255111304993 0.02009252301182146 -0.03219668056109841 8.046301036515382 3.516030247073267 -19.245008272169336 0.005494106456250311 10.366544173614024 0.012247339933686268 -5.606631819582912 -15.70957742996961 3.1711048905959442 -0.015806899869642066 0.04301805265648201 -0.03717085233030023 -0.018880693277292086 4.696330076346077 -0.044386677885857005 12.425686504591168 -8.253212413395625 6.851330381132893 0.005442966940690848 46.37593511038489 -0.029659190240119503 -4.369244246693224 -14.769339523651903 -3.8409460809906104 0.03146242581878573 0.009043814331489838 0.010752637668513676 -0.015114602670924286 -10.745355934688442 0.03057424971314601 
-0.001860491808778186 0.0341188679532676 -0.03276297348723133 -0.016061330948540602 -0.02433563901735783 -0.007692563461006729 -1.9023755668644655 -0.22018955702529697 -1.1505558752987657 -0.19399232159519297 3.7735437210566873 0.2462556613292652 -0.582951020588378 -2.0438580121683003 -0.1259091799953968 -0.9828702370338367 -1.1924178253310398 -0.5987803460451855 -0.3592438609603843 13.25221192259467 -0.01575108629213682 1.030520366221078 -0.29223173972360683 0.561622877891975 1.1634396222955676 -15.081121880241698 0.0071338388639429345 -0.7625047923914484 0.7044590029371844 -13.609749883615565 66.25545618713969 0.3600251356827081 21.07379021323448 30.34050536372983 8.201695554161084 99.58123076574277 25.348963503414325 -0.11893203443262737 -6.3245564528086256 4.527115291316099 -0.08281885108924635 -1.5558322587563636 0.0012503607324252661 0.045212453736010655 -56.254933982421235 0.029724759509320634 -0.001646253159739624 -56.264436248557516 -38.810299794909916 -0.004895168298211752 -0.031332702707350925 -0.020316682267062736 0.0033567281192934365 -0.03386781706973879 0.011314470630151664 -0.00555140937073213 0.00469276439552635 -36.71815900018391 0.031961119696989504 -0.024427653629195172 -0.032648586321553166 -0.04029097858780194 0.014937597368651577 -0.0023824649337921295 -0.0067347075042926245 0.009632146841904112 -19.752323815550504 -0.020098884518906845 -0.029747599464177 0.019678469179890246 -0.008319134647427279 0.041769590208273887 0.0069211537026136445 -0.0427617735408964 -0.016416457238692395 24.015550143242212 -0.0010019594905780014 -0.020199983619961375 28.835692314965655 0.015444011037778359 0.046391075751461244 28.877657470720425 -0.031267484598099846 -0.005091441177755693 5.574853625407842 1.5265134786153463 12.474888317785434 -70.33651125778218 21.70446501118533 -27.89806709688675 -24.616974732604838 5.34409437207782 -96.46816331453171 -26.20955775554605 4.680572975740426 -4.23103720511249 -0.4770045424446924 0.07156063865926295 -8.146128351181872 -0.03687467093489657 -0.01374944802162332 44.55382627679916 0.021519660650428953 0.018959266548589634 44.596196347989846 12.466388917125695 0.03171426255090187 0.021283261306928647 -0.004908234827402721 -0.032652063646532975 -0.0011006828976164158 0.009572039856321962 0.04818902042103885 -0.00035505832661626377 11.124310355157153 0.013405575086868012 0.0023356626014163066 0.016328916518505755 -0.003925855652831034 0.026929499226472958 0.03610936337872067 -0.031910541577891416 0.024069366212434818 4.800005225402393 0.0380010000237147 0.007148910946735817 0.014174580544746894 -0.047526339104451226 -0.02471105352475696 0.015413150719504151 -0.00397095395939043 0.03505634025250776 -5.60685546632129 0.022958166974708066 0.04060196207903344 -6.7219362733775325 -0.04488689844692183 -0.03874868592046833 -6.730173859537711 0.0463292368173411 0.0025553151629870347 -0.022782570178431022 0.0282401139408752 -0.03609838658419322 8.082584491918503 3.4939533248150676 -19.18723932331571 0.03477900552023831 10.429328855652214 0.04656115115708584 -5.623006885795157 -15.652702934601518 3.201013160207293 -0.03437251135722654 -0.0369190432363606 -0.016008198114107974 0.028373663006981374 4.656991470047482 -0.03182367656387794 12.480772367194824 -8.242991636671556 6.841536901477854 -0.015252122312447448 46.412901941186654 -0.000839261476858032 -4.323329056137346 -14.74303556984728 -3.8443727203166085 0.006040301057663248 -0.027314481828044013 -0.03420785279993015 0.02258102206037215 -10.760553266228781 0.035306272834330646 
